<svg width="86" height="86" viewBox="0 0 86 86" fill="none" xmlns="http://www.w3.org/2000/svg">
<g filter="url(#filter0_d)">
<path fill-rule="evenodd" clip-rule="evenodd" d="M42.9999 71.5582C60.9813 71.5582 75.5581 56.9814 75.5581 39C75.5581 21.0187 60.9813 6.44189 42.9999 6.44189C25.0185 6.44189 10.4418 21.0187 10.4418 39C10.4418 56.9814 25.0185 71.5582 42.9999 71.5582Z" fill="white"/>
</g>
<path fill-rule="evenodd" clip-rule="evenodd" d="M78 39C78 58.33 62.33 74 43 74C23.67 74 8 58.33 8 39C8 19.67 23.67 4 43 4C62.33 4 78 19.67 78 39ZM10.4418 39.0001C10.4418 56.9814 25.0186 71.5582 43 71.5582C60.9813 71.5582 75.5581 56.9814 75.5581 39.0001C75.5581 21.0187 60.9813 6.44193 43 6.44193C25.0186 6.44193 10.4418 21.0187 10.4418 39.0001Z" fill="white"/>
<mask id="mask0" mask-type="alpha" maskUnits="userSpaceOnUse" x="10" y="6" width="66" height="66">
<path fill-rule="evenodd" clip-rule="evenodd" d="M42.9999 71.5582C60.9813 71.5582 75.5581 56.9814 75.5581 39C75.5581 21.0187 60.9813 6.44189 42.9999 6.44189C25.0185 6.44189 10.4418 21.0187 10.4418 39C10.4418 56.9814 25.0185 71.5582 42.9999 71.5582Z" fill="white"/>
</mask>
<g mask="url(#mask0)">
<g filter="url(#filter1_i)">
<path fill-rule="evenodd" clip-rule="evenodd" d="M42.9999 71.5582C60.9813 71.5582 75.5581 56.9814 75.5581 39C75.5581 21.0187 60.9813 6.44189 42.9999 6.44189C25.0185 6.44189 10.4418 21.0187 10.4418 39C10.4418 56.9814 25.0185 71.5582 42.9999 71.5582Z" fill="#FBF3E7"/>
</g>
</g>
<path opacity="0.3" fill-rule="evenodd" clip-rule="evenodd" d="M30.3334 26.3335L42.4165 24.0679C42.8022 23.9956 43.1979 23.9956 43.5836 24.0679L55.6667 26.3335V41.0316C55.6667 45.6777 53.2733 49.9961 49.3334 52.4585L43.8392 55.8923C43.3258 56.2132 42.6743 56.2132 42.1609 55.8923L36.6667 52.4585C32.7268 49.9961 30.3334 45.6777 30.3334 41.0316V26.3335Z" fill="#FF9100"/>
<path fill-rule="evenodd" clip-rule="evenodd" d="M46.9584 37.4167C47.8328 37.4167 48.5417 38.1256 48.5417 39.0001V43.7501C48.5417 44.6245 47.8328 45.3334 46.9584 45.3334H39.0417C38.1673 45.3334 37.4584 44.6245 37.4584 43.7501V39.0001C37.4584 38.1256 38.1673 37.4167 39.0417 37.4167V36.6251C39.0417 34.439 40.8139 32.6667 43 32.6667C45.1862 32.6667 46.9584 34.439 46.9584 36.6251V37.4167ZM43 34.2501C41.6884 34.2501 40.625 35.3134 40.625 36.6251V37.4167H45.375V36.6251C45.375 35.3134 44.3117 34.2501 43 34.2501Z" fill="#FF9100"/>
<defs>
<filter id="filter0_d" x="0.441772" y="0.441895" width="85.1163" height="85.1163" filterUnits="userSpaceOnUse" color-interpolation-filters="sRGB">
<feFlood flood-opacity="0" result="BackgroundImageFix"/>
<feColorMatrix in="SourceAlpha" type="matrix" values="0 0 0 0 0 0 0 0 0 0 0 0 0 0 0 0 0 0 127 0"/>
<feOffset dy="4"/>
<feGaussianBlur stdDeviation="5"/>
<feColorMatrix type="matrix" values="0 0 0 0 0 0 0 0 0 0 0 0 0 0 0 0 0 0 0.08 0"/>
<feBlend mode="normal" in2="BackgroundImageFix" result="effect1_dropShadow"/>
<feBlend mode="normal" in="SourceGraphic" in2="effect1_dropShadow" result="shape"/>
</filter>
<filter id="filter1_i" x="10.4418" y="6.44189" width="65.1163" height="66.1163" filterUnits="userSpaceOnUse" color-interpolation-filters="sRGB">
<feFlood flood-opacity="0" result="BackgroundImageFix"/>
<feBlend mode="normal" in="SourceGraphic" in2="BackgroundImageFix" result="shape"/>
<feColorMatrix in="SourceAlpha" type="matrix" values="0 0 0 0 0 0 0 0 0 0 0 0 0 0 0 0 0 0 127 0" result="hardAlpha"/>
<feOffset dy="1"/>
<feGaussianBlur stdDeviation="1"/>
<feComposite in2="hardAlpha" operator="arithmetic" k2="-1" k3="1"/>
<feColorMatrix type="matrix" values="0 0 0 0 0 0 0 0 0 0 0 0 0 0 0 0 0 0 0.04 0"/>
<feBlend mode="normal" in2="shape" result="effect1_innerShadow"/>
</filter>
</defs>
</svg>
