<svg width="86" height="86" viewBox="0 0 86 86" fill="none" xmlns="http://www.w3.org/2000/svg">
<g filter="url(#filter0_d)">
<path fill-rule="evenodd" clip-rule="evenodd" d="M42.9999 71.5582C60.9813 71.5582 75.5581 56.9814 75.5581 39C75.5581 21.0187 60.9813 6.44189 42.9999 6.44189C25.0185 6.44189 10.4418 21.0187 10.4418 39C10.4418 56.9814 25.0185 71.5582 42.9999 71.5582Z" fill="white"/>
</g>
<path fill-rule="evenodd" clip-rule="evenodd" d="M78 39C78 58.33 62.33 74 43 74C23.67 74 8 58.33 8 39C8 19.67 23.67 4 43 4C62.33 4 78 19.67 78 39ZM10.4418 39.0001C10.4418 56.9814 25.0186 71.5582 43 71.5582C60.9813 71.5582 75.5581 56.9814 75.5581 39.0001C75.5581 21.0187 60.9813 6.44193 43 6.44193C25.0186 6.44193 10.4418 21.0187 10.4418 39.0001Z" fill="white"/>
<mask id="mask0" mask-type="alpha" maskUnits="userSpaceOnUse" x="10" y="6" width="66" height="66">
<path fill-rule="evenodd" clip-rule="evenodd" d="M42.9999 71.5582C60.9813 71.5582 75.5581 56.9814 75.5581 39C75.5581 21.0187 60.9813 6.44189 42.9999 6.44189C25.0185 6.44189 10.4418 21.0187 10.4418 39C10.4418 56.9814 25.0185 71.5582 42.9999 71.5582Z" fill="white"/>
</mask>
<g mask="url(#mask0)">
<g filter="url(#filter1_i)">
<path fill-rule="evenodd" clip-rule="evenodd" d="M42.9999 71.5582C60.9813 71.5582 75.5581 56.9814 75.5581 39C75.5581 21.0187 60.9813 6.44189 42.9999 6.44189C25.0185 6.44189 10.4418 21.0187 10.4418 39C10.4418 56.9814 25.0185 71.5582 42.9999 71.5582Z" fill="#FBF3E7"/>
</g>
</g>
<path d="M44.4783 45.4481L54.6534 37.3478L54.9038 37.1495C55.9322 36.3352 56.1057 34.8415 55.2914 33.8132C55.1787 33.6708 55.0499 33.5418 54.9078 33.4288L44.4784 25.1341C43.613 24.4459 42.3871 24.4459 41.5218 25.1341L31.0852 33.4344C30.0586 34.2509 29.8883 35.745 30.7048 36.7716C30.8163 36.9119 30.9434 37.0391 31.0836 37.1508L31.3309 37.3478L41.5211 45.4491C42.3868 46.1373 43.613 46.1369 44.4783 45.4481Z" fill="#FF9100"/>
<path opacity="0.3" fill-rule="evenodd" clip-rule="evenodd" d="M41.506 49.5619L32.4486 42.3613C31.8305 41.8698 30.931 41.9726 30.4396 42.5907C30.4359 42.5954 30.4321 42.6002 30.4284 42.605C29.9416 43.2336 30.0566 44.1377 30.6851 44.6245C30.6874 44.6262 30.6897 44.628 30.692 44.6297L41.5549 52.9383C42.4064 53.5895 43.5887 53.5897 44.4403 52.9385L55.299 44.6364C55.9348 44.1503 56.0562 43.2408 55.5701 42.6051C55.568 42.6023 55.5659 42.5996 55.5638 42.5969C55.0757 41.9677 54.1699 41.8534 53.5407 42.3416C53.5361 42.3451 53.5316 42.3487 53.527 42.3523L44.4623 49.5616C43.597 50.2498 42.3713 50.2499 41.506 49.5619Z" fill="#FF9100"/>
<defs>
<filter id="filter0_d" x="0.441772" y="0.441895" width="85.1163" height="85.1163" filterUnits="userSpaceOnUse" color-interpolation-filters="sRGB">
<feFlood flood-opacity="0" result="BackgroundImageFix"/>
<feColorMatrix in="SourceAlpha" type="matrix" values="0 0 0 0 0 0 0 0 0 0 0 0 0 0 0 0 0 0 127 0"/>
<feOffset dy="4"/>
<feGaussianBlur stdDeviation="5"/>
<feColorMatrix type="matrix" values="0 0 0 0 0 0 0 0 0 0 0 0 0 0 0 0 0 0 0.08 0"/>
<feBlend mode="normal" in2="BackgroundImageFix" result="effect1_dropShadow"/>
<feBlend mode="normal" in="SourceGraphic" in2="effect1_dropShadow" result="shape"/>
</filter>
<filter id="filter1_i" x="10.4418" y="6.44189" width="65.1163" height="66.1163" filterUnits="userSpaceOnUse" color-interpolation-filters="sRGB">
<feFlood flood-opacity="0" result="BackgroundImageFix"/>
<feBlend mode="normal" in="SourceGraphic" in2="BackgroundImageFix" result="shape"/>
<feColorMatrix in="SourceAlpha" type="matrix" values="0 0 0 0 0 0 0 0 0 0 0 0 0 0 0 0 0 0 127 0" result="hardAlpha"/>
<feOffset dy="1"/>
<feGaussianBlur stdDeviation="1"/>
<feComposite in2="hardAlpha" operator="arithmetic" k2="-1" k3="1"/>
<feColorMatrix type="matrix" values="0 0 0 0 0 0 0 0 0 0 0 0 0 0 0 0 0 0 0.04 0"/>
<feBlend mode="normal" in2="shape" result="effect1_innerShadow"/>
</filter>
</defs>
</svg>
